<svg width="35.000000" height="34.000000" viewBox="0 0 35 34" fill="none" xmlns="http://www.w3.org/2000/svg" xmlns:xlink="http://www.w3.org/1999/xlink">
	<desc>
			Created with Pixso.
	</desc>
	<defs>
		<filter id="filter_993_156_dd" x="-0.813572" y="-0.568604" width="35.627148" height="34.361938" filterUnits="userSpaceOnUse" color-interpolation-filters="sRGB">
			<feFlood flood-opacity="0" result="BackgroundImageFix"/>
			<feColorMatrix in="SourceAlpha" type="matrix" values="0 0 0 0 0 0 0 0 0 0 0 0 0 0 0 0 0 0 127 0" result="hardAlpha"/>
			<feOffset dx="0" dy="4"/>
			<feGaussianBlur stdDeviation="1.33333"/>
			<feComposite in2="hardAlpha" operator="out" k2="-1" k3="1"/>
			<feColorMatrix type="matrix" values="0 0 0 0 0 0 0 0 0 0 0 0 0 0 0 0 0 0 0.25 0"/>
			<feBlend mode="normal" in2="BackgroundImageFix" result="effect_dropShadow_1"/>
			<feBlend mode="normal" in="SourceGraphic" in2="effect_dropShadow_1" result="shape"/>
		</filter>
	</defs>
	<g filter="url(#filter_993_156_dd)">
		<path id="Star 3" d="M18.9 0.8L20.79 6.6C21.06 7.43 21.83 7.98 22.69 7.98L28.8 7.98C30.75 7.98 31.55 10.47 29.98 11.6L25.06 15.15C24.35 15.66 24.05 16.57 24.32 17.4L26.21 23.16C26.81 25 24.71 26.53 23.14 25.4L18.17 21.81C17.47 21.31 16.52 21.31 15.82 21.81L10.85 25.4C9.28 26.53 7.18 25 7.78 23.16L9.67 17.4C9.94 16.57 9.64 15.66 8.93 15.15L4.02 11.6C2.44 10.47 3.24 7.98 5.19 7.98L11.3 7.98C12.16 7.98 12.93 7.43 13.2 6.6L15.09 0.8C15.7 -1.03 18.29 -1.03 18.9 0.8Z" fill="#FFA928" fill-opacity="1.000000" fill-rule="nonzero"/>
	</g>
</svg>
